<svg width="257" height="97" viewBox="0 0 257 97" fill="none" xmlns="http://www.w3.org/2000/svg">
<path fill-rule="evenodd" clip-rule="evenodd" d="M38.8667 29.6V24.3C38.8667 22.8944 38.3083 21.5463 37.3143 20.5523C36.3204 19.5584 34.9723 19 33.5667 19H19.4333C18.0277 19 16.6796 19.5584 15.6857 20.5523C14.6917 21.5463 14.1333 22.8944 14.1333 24.3V29.6H0V33.1333H3.53333V66.7C3.53333 68.1056 4.09172 69.4537 5.08567 70.4477C6.07961 71.4416 7.42769 72 8.83333 72H44.1667C45.5723 72 46.9204 71.4416 47.9143 70.4477C48.9083 69.4537 49.4667 68.1056 49.4667 66.7V33.1333H53V29.6H38.8667ZM17.6667 24.3C17.6667 23.8315 17.8528 23.3821 18.1841 23.0508C18.5154 22.7195 18.9648 22.5333 19.4333 22.5333H33.5667C34.0352 22.5333 34.4846 22.7195 34.8159 23.0508C35.1472 23.3821 35.3333 23.8315 35.3333 24.3V29.6H17.6667V24.3ZM24.7333 43.7333V61.4H28.2667V43.7333H24.7333ZM14.1333 61.4V50.8H17.6667V61.4H14.1333ZM35.3333 50.8V61.4H38.8667V50.8H35.3333Z" fill="white"/>
<path d="M102.248 72H86.44V27.712H102.248C109.459 27.712 114.237 30.5707 116.584 36.288C117.949 39.5733 118.632 43.8827 118.632 49.216C118.632 60.352 115.859 67.3707 110.312 70.272C108.093 71.424 105.405 72 102.248 72ZM113.576 49.216C113.576 40.7253 111.677 35.4347 107.88 33.344C106.344 32.4907 104.467 32.064 102.248 32.064H91.368V67.648H102.248C109.8 67.648 113.576 61.504 113.576 49.216ZM148.618 68.032L150.474 67.84L150.602 71.616C145.738 72.2987 141.578 72.64 138.122 72.64C133.514 72.64 130.25 71.3173 128.33 68.672C126.41 65.984 125.45 61.824 125.45 56.192C125.45 44.9707 129.909 39.36 138.826 39.36C143.135 39.36 146.357 40.576 148.49 43.008C150.623 45.3973 151.69 49.1733 151.69 54.336L151.434 57.984H130.314C130.314 61.5253 130.954 64.1493 132.234 65.856C133.514 67.5627 135.733 68.416 138.89 68.416C142.09 68.416 145.333 68.288 148.618 68.032ZM146.89 54.144C146.89 50.2187 146.25 47.4453 144.97 45.824C143.733 44.2027 141.685 43.392 138.826 43.392C136.01 43.392 133.877 44.2453 132.426 45.952C131.018 47.6587 130.293 50.3893 130.25 54.144H146.89ZM159.555 72V26.048H164.355V72H159.555ZM195.743 68.032L197.599 67.84L197.727 71.616C192.863 72.2987 188.703 72.64 185.247 72.64C180.639 72.64 177.375 71.3173 175.455 68.672C173.535 65.984 172.575 61.824 172.575 56.192C172.575 44.9707 177.034 39.36 185.951 39.36C190.26 39.36 193.482 40.576 195.615 43.008C197.748 45.3973 198.815 49.1733 198.815 54.336L198.559 57.984H177.439C177.439 61.5253 178.079 64.1493 179.359 65.856C180.639 67.5627 182.858 68.416 186.015 68.416C189.215 68.416 192.458 68.288 195.743 68.032ZM194.015 54.144C194.015 50.2187 193.375 47.4453 192.095 45.824C190.858 44.2027 188.81 43.392 185.951 43.392C183.135 43.392 181.002 44.2453 179.551 45.952C178.143 47.6587 177.418 50.3893 177.375 54.144H194.015ZM222.684 44.16H212.508V59.456C212.508 63.1253 212.764 65.536 213.276 66.688C213.831 67.84 215.111 68.416 217.116 68.416L222.812 68.032L223.132 72C220.273 72.4693 218.097 72.704 216.604 72.704C213.276 72.704 210.972 71.8933 209.692 70.272C208.412 68.6507 207.772 65.5573 207.772 60.992V44.16H203.228V40H207.772V30.208H212.508V40H222.684V44.16ZM250.306 68.032L252.162 67.84L252.29 71.616C247.426 72.2987 243.266 72.64 239.81 72.64C235.202 72.64 231.938 71.3173 230.018 68.672C228.098 65.984 227.138 61.824 227.138 56.192C227.138 44.9707 231.596 39.36 240.514 39.36C244.823 39.36 248.044 40.576 250.178 43.008C252.311 45.3973 253.378 49.1733 253.378 54.336L253.122 57.984H232.002C232.002 61.5253 232.642 64.1493 233.922 65.856C235.202 67.5627 237.42 68.416 240.578 68.416C243.778 68.416 247.02 68.288 250.306 68.032ZM248.578 54.144C248.578 50.2187 247.938 47.4453 246.658 45.824C245.42 44.2027 243.372 43.392 240.514 43.392C237.698 43.392 235.564 44.2453 234.114 45.952C232.706 47.6587 231.98 50.3893 231.938 54.144H248.578Z" fill="white"/>
</svg>
