<svg width="173" height="97" viewBox="0 0 173 97" fill="none" xmlns="http://www.w3.org/2000/svg">
<path d="M72.44 72V27.712H99.384V32.064H77.368V47.36H95.544V51.648H77.368V67.648H99.384V72H72.44ZM130.997 26.048V72H126.261V69.824C122.975 71.7013 119.733 72.64 116.533 72.64C114.826 72.64 113.333 72.4267 112.053 72C110.773 71.5733 109.578 70.8053 108.469 69.696C106.165 67.392 105.013 63.1467 105.013 56.96C105.013 50.7307 106.037 46.2507 108.085 43.52C110.175 40.7467 113.61 39.36 118.389 39.36C120.863 39.36 123.487 39.6373 126.261 40.192V26.048H130.997ZM112.181 66.24C112.863 67.0507 113.589 67.6053 114.357 67.904C115.125 68.2027 116.106 68.352 117.301 68.352C118.538 68.352 119.903 68.16 121.397 67.776C122.933 67.3493 124.127 66.944 124.981 66.56L126.261 65.984V44.288C123.53 43.776 120.991 43.52 118.645 43.52C115.402 43.52 113.141 44.5653 111.861 46.656C110.581 48.704 109.941 51.904 109.941 56.256C109.941 61.2053 110.687 64.5333 112.181 66.24ZM140.296 72V40H145.095V72H140.296ZM140.296 32.768V27.2H145.095V32.768H140.296ZM170.872 44.16H160.696V59.456C160.696 63.1253 160.952 65.536 161.464 66.688C162.018 67.84 163.298 68.416 165.304 68.416L171 68.032L171.32 72C168.461 72.4693 166.285 72.704 164.792 72.704C161.464 72.704 159.16 71.8933 157.88 70.272C156.6 68.6507 155.96 65.5573 155.96 60.992V44.16H151.416V40H155.96V30.208H160.696V40H170.872V44.16Z" fill="black"/>
<path fill-rule="evenodd" clip-rule="evenodd" d="M44.8439 25.293C43.3671 23.8167 41.3644 22.9873 39.2763 22.9873C37.1881 22.9873 35.1854 23.8167 33.7086 25.293L31.8528 27.1515L44.8465 40.1452L46.6998 38.2894C47.4312 37.5581 48.0113 36.6899 48.4072 35.7344C48.803 34.7788 49.0068 33.7547 49.0068 32.7204C49.0068 31.6862 48.803 30.662 48.4072 29.7065C48.0113 28.751 47.4312 27.8828 46.6998 27.1515L44.8439 25.293ZM41.1321 43.857L28.1384 30.8632L4.27713 54.7271C3.75497 55.2494 3.39021 55.9079 3.22451 56.6276L0.523381 68.322C0.422736 68.7561 0.434281 69.2088 0.556927 69.6372C0.679573 70.0657 0.909283 70.4558 1.22441 70.771C1.53954 71.0861 1.92971 71.3158 2.35816 71.4385C2.78661 71.5611 3.23924 71.5726 3.67338 71.472L15.3704 68.7735C16.0891 68.6073 16.7467 68.2426 17.2683 67.7209L41.1321 43.857Z" fill="black"/>
</svg>
