<svg width="51" height="81" viewBox="0 0 51 81" fill="none" xmlns="http://www.w3.org/2000/svg">
<path d="M25.29 0C39.285 0 50.625 11.34 50.625 25.29C50.625 33.57 41.49 45.9 41.49 45.9C40.005 47.88 38.79 51.525 38.79 54V58.5C38.79 60.975 36.765 63 34.29 63H16.29C13.815 63 11.79 60.975 11.79 58.5V54C11.79 51.525 10.575 47.88 9.09 45.9C9.09 45.9 0 33.57 0 25.29C0 11.34 11.295 0 25.29 0ZM11.79 71.415V67.5H38.79V71.415C38.79 74.205 38.205 76.5 35.415 76.5H34.29C34.29 79.29 32.49 81 29.7 81H20.7C17.955 81 16.29 79.29 16.29 76.5H15.165C12.375 76.5 11.79 74.205 11.79 71.415Z" fill="black"/>
</svg>
