<svg width="99" height="56" viewBox="0 0 99 56" fill="none" xmlns="http://www.w3.org/2000/svg">
<path d="M39.6 25.4545V30.5455C39.6 31.2455 39.0431 31.8182 38.3625 31.8182H30.9375V39.4545C30.9375 40.1545 30.3806 40.7273 29.7 40.7273H24.75C24.0694 40.7273 23.5125 40.1545 23.5125 39.4545V31.8182H16.0875C15.4069 31.8182 14.85 31.2455 14.85 30.5455V25.4545C14.85 24.7545 15.4069 24.1818 16.0875 24.1818H23.5125V16.5455C23.5125 15.8455 24.0694 15.2727 24.75 15.2727H29.7C30.3806 15.2727 30.9375 15.8455 30.9375 16.5455V24.1818H38.3625C39.0431 24.1818 39.6 24.7545 39.6 25.4545ZM76.725 15.2727C73.3064 15.2727 70.5375 18.1205 70.5375 21.6364C70.5375 25.1523 73.3064 28 76.725 28C80.1436 28 82.9125 25.1523 82.9125 21.6364C82.9125 18.1205 80.1436 15.2727 76.725 15.2727ZM66.825 28C63.4064 28 60.6375 30.8477 60.6375 34.3636C60.6375 37.8795 63.4064 40.7273 66.825 40.7273C70.2436 40.7273 73.0125 37.8795 73.0125 34.3636C73.0125 30.8477 70.2436 28 66.825 28ZM71.775 7.63636H27.225C16.2731 7.63636 7.425 16.7523 7.425 28C7.425 39.2636 16.2886 48.3636 27.225 48.3636C35.9184 48.3636 40.5436 43.0659 42.9567 40.7273H56.0433C58.5492 43.1614 63.1434 48.3636 71.775 48.3636C82.7269 48.3636 91.575 39.2477 91.575 28C91.575 16.7364 82.7114 7.63636 71.775 7.63636ZM71.775 0C86.8106 0 99 12.5364 99 28C99 43.4636 86.8106 56 71.775 56C64.5356 56 57.9614 53.1045 53.0887 48.3636H45.9112C41.0386 53.1045 34.4644 56 27.225 56C12.1894 56 0 43.4636 0 28C0 12.5364 12.1894 0 27.225 0H71.775Z" fill="white"/>
</svg>
