<svg width="105" height="84" viewBox="0 0 105 84" fill="none" xmlns="http://www.w3.org/2000/svg">
<g clip-path="url(#clip0_1_164)">
<path d="M58.0453 8.87564L54.1734 1.03345C53.5336 -0.328269 51.532 -0.377488 50.8266 1.03345L46.9547 8.87564L38.3742 10.1061C36.8484 10.3358 36.1922 12.2225 37.3242 13.3545L43.5586 19.4249L42.082 27.9725C41.8523 29.4983 43.4273 30.6795 44.8383 29.9741L52.5328 25.9053L60.1781 29.9084C61.5891 30.6139 63.1805 29.4327 62.9344 27.9069L61.4578 19.3592L67.6922 13.3545C68.8078 12.2389 68.168 10.3522 66.6422 10.1061L58.0617 8.87564H58.0453ZM42 41.9999C39.0961 41.9999 36.75 44.3459 36.75 47.2499V78.7499C36.75 81.6538 39.0961 83.9999 42 83.9999H63C65.9039 83.9999 68.25 81.6538 68.25 78.7499V47.2499C68.25 44.3459 65.9039 41.9999 63 41.9999H42ZM5.25 52.4999C2.34609 52.4999 0 54.8459 0 57.7499V78.7499C0 81.6538 2.34609 83.9999 5.25 83.9999H26.25C29.1539 83.9999 31.5 81.6538 31.5 78.7499V57.7499C31.5 54.8459 29.1539 52.4999 26.25 52.4999H5.25ZM73.5 68.2499V78.7499C73.5 81.6538 75.8461 83.9999 78.75 83.9999H99.75C102.654 83.9999 105 81.6538 105 78.7499V68.2499C105 65.3459 102.654 62.9999 99.75 62.9999H78.75C75.8461 62.9999 73.5 65.3459 73.5 68.2499Z" fill="white"/>
</g>
<defs>
<clipPath id="clip0_1_164">
<rect width="105" height="84" fill="white"/>
</clipPath>
</defs>
</svg>
