<svg width="81" height="93" viewBox="0 0 81 93" fill="none" xmlns="http://www.w3.org/2000/svg">
<g clip-path="url(#clip0_1_166)">
<path d="M40.5 46.5C46.6379 46.5 52.5243 44.0505 56.8645 39.6902C61.2046 35.33 63.6429 29.4163 63.6429 23.25C63.6429 17.0837 61.2046 11.17 56.8645 6.80977C52.5243 2.44955 46.6379 0 40.5 0C34.3621 0 28.4757 2.44955 24.1355 6.80977C19.7954 11.17 17.3571 17.0837 17.3571 23.25C17.3571 29.4163 19.7954 35.33 24.1355 39.6902C28.4757 44.0505 34.3621 46.5 40.5 46.5ZM32.2373 55.2188C14.4281 55.2188 0 69.7137 0 87.6053C0 90.5842 2.40469 93 5.36987 93H75.6301C78.5953 93 81 90.5842 81 87.6053C81 69.7137 66.5719 55.2188 48.7627 55.2188H32.2373Z" fill="black"/>
</g>
<defs>
<clipPath id="clip0_1_166">
<rect width="81" height="93" fill="white"/>
</clipPath>
</defs>
</svg>
