<svg width="128" height="128" viewBox="0 0 128 128" fill="none" xmlns="http://www.w3.org/2000/svg">
<path d="M76.2534 50.2185L111.192 26.1065M111.192 26.1065L106.296 80.2398L75.4428 112.939M111.192 26.1065L57.6748 14.6665L17.0054 31.8398M38.4614 95.7652L34.1788 37.5492M55.8321 104.155L54.4028 43.0612M19.4641 52.8772L75.0241 73.3012M74.6294 94.3385L21.3094 72.0692M75.2428 94.3385L107.107 64.5172M75.6401 73.1012L109.149 45.9385M101.595 32.8505L97.2908 89.2425M89.9361 40.6238L87.2774 99.6532M54.1841 42.8638L90.5494 21.8265M33.9601 37.3518L74.0134 18.3545M33.3654 25.0985L89.9361 40.4052M101.376 32.8505L46.4321 19.9812M16.8081 32.0372L76.0561 50.0212L75.0241 113.333L22.7361 88.4292L16.8081 32.0372Z" stroke="black" stroke-width="2.66667" stroke-linecap="round" stroke-linejoin="round"/>
</svg>
